<svg width="134" height="28" viewBox="0 0 134 28" fill="none" xmlns="http://www.w3.org/2000/svg">
<path d="M23.8764 9.98438H18.277C18.1747 9.25994 17.9659 8.61648 17.6506 8.05398C17.3352 7.48295 16.9304 6.99716 16.4361 6.59659C15.9418 6.19602 15.3707 5.8892 14.723 5.67614C14.0838 5.46307 13.3892 5.35653 12.6392 5.35653C11.2841 5.35653 10.1037 5.69318 9.09801 6.36648C8.09233 7.03125 7.3125 8.00284 6.75852 9.28125C6.20455 10.5511 5.92756 12.0937 5.92756 13.9091C5.92756 15.7756 6.20455 17.3437 6.75852 18.6136C7.32102 19.8835 8.10511 20.8423 9.1108 21.4901C10.1165 22.1378 11.2798 22.4616 12.6009 22.4616C13.3423 22.4616 14.0284 22.3636 14.6591 22.1676C15.2983 21.9716 15.8651 21.6861 16.3594 21.3111C16.8537 20.9276 17.2628 20.4631 17.5866 19.9176C17.919 19.3722 18.1491 18.75 18.277 18.0511L23.8764 18.0767C23.7315 19.2784 23.3693 20.4375 22.7898 21.554C22.2188 22.6619 21.4474 23.6548 20.4759 24.5327C19.5128 25.402 18.3622 26.0923 17.0241 26.6037C15.6946 27.1065 14.1903 27.358 12.5114 27.358C10.1761 27.358 8.08807 26.8295 6.24716 25.7727C4.41477 24.7159 2.96591 23.1861 1.90057 21.1832C0.84375 19.1804 0.315341 16.7557 0.315341 13.9091C0.315341 11.054 0.852273 8.625 1.92614 6.62216C3 4.61932 4.45739 3.09375 6.2983 2.04545C8.1392 0.988636 10.2102 0.460226 12.5114 0.460226C14.0284 0.460226 15.4347 0.673295 16.7301 1.09943C18.0341 1.52557 19.1889 2.14773 20.1946 2.96591C21.2003 3.77557 22.0185 4.76846 22.6491 5.9446C23.2884 7.12074 23.6974 8.46733 23.8764 9.98438ZM36.6158 27.3835C34.63 27.3835 32.9126 26.9616 31.4638 26.1179C30.0234 25.2656 28.9112 24.081 28.1271 22.5639C27.343 21.0384 26.951 19.2699 26.951 17.2585C26.951 15.2301 27.343 13.4574 28.1271 11.9403C28.9112 10.4148 30.0234 9.23011 31.4638 8.38636C32.9126 7.53409 34.63 7.10795 36.6158 7.10795C38.6016 7.10795 40.3146 7.53409 41.755 8.38636C43.2038 9.23011 44.3203 10.4148 45.1044 11.9403C45.8885 13.4574 46.2805 15.2301 46.2805 17.2585C46.2805 19.2699 45.8885 21.0384 45.1044 22.5639C44.3203 24.081 43.2038 25.2656 41.755 26.1179C40.3146 26.9616 38.6016 27.3835 36.6158 27.3835ZM36.6413 23.1648C37.5447 23.1648 38.299 22.9091 38.9041 22.3977C39.5092 21.8778 39.9652 21.1705 40.272 20.2756C40.5874 19.3807 40.745 18.3622 40.745 17.2202C40.745 16.0781 40.5874 15.0597 40.272 14.1648C39.9652 13.2699 39.5092 12.5625 38.9041 12.0426C38.299 11.5227 37.5447 11.2628 36.6413 11.2628C35.7294 11.2628 34.9624 11.5227 34.3402 12.0426C33.7266 12.5625 33.2621 13.2699 32.9467 14.1648C32.6399 15.0597 32.4865 16.0781 32.4865 17.2202C32.4865 18.3622 32.6399 19.3807 32.9467 20.2756C33.2621 21.1705 33.7266 21.8778 34.3402 22.3977C34.9624 22.9091 35.7294 23.1648 36.6413 23.1648ZM58.6939 27.3835C56.6825 27.3835 54.9524 26.9574 53.5036 26.1051C52.0632 25.2443 50.9553 24.0511 50.1797 22.5256C49.4126 21 49.0291 19.2443 49.0291 17.2585C49.0291 15.2472 49.4169 13.483 50.1925 11.9659C50.9766 10.4403 52.0888 9.25142 53.5291 8.39915C54.9695 7.53835 56.6825 7.10795 58.6683 7.10795C60.3814 7.10795 61.8814 7.41903 63.1683 8.04119C64.4553 8.66335 65.4737 9.53693 66.2237 10.6619C66.9737 11.7869 67.3871 13.108 67.4638 14.625H62.3246C62.1797 13.6449 61.7962 12.8565 61.174 12.2599C60.5604 11.6548 59.755 11.3523 58.7578 11.3523C57.9141 11.3523 57.1768 11.5824 56.5462 12.0426C55.924 12.4943 55.4382 13.1548 55.0888 14.0241C54.7393 14.8935 54.5646 15.946 54.5646 17.1818C54.5646 18.4347 54.7351 19.5 55.076 20.3778C55.4254 21.2557 55.9155 21.9247 56.5462 22.3849C57.1768 22.8452 57.9141 23.0753 58.7578 23.0753C59.38 23.0753 59.9382 22.9474 60.4325 22.6918C60.9354 22.4361 61.3487 22.0653 61.6726 21.5795C62.005 21.0852 62.2223 20.4929 62.3246 19.8026H67.4638C67.3786 21.3026 66.9695 22.6236 66.2365 23.7656C65.5121 24.8991 64.5107 25.7855 63.2322 26.4247C61.9538 27.0639 60.4411 27.3835 58.6939 27.3835ZM79.8228 27.3835C77.837 27.3835 76.1197 26.9616 74.6708 26.1179C73.2305 25.2656 72.1183 24.081 71.3342 22.5639C70.5501 21.0384 70.158 19.2699 70.158 17.2585C70.158 15.2301 70.5501 13.4574 71.3342 11.9403C72.1183 10.4148 73.2305 9.23011 74.6708 8.38636C76.1197 7.53409 77.837 7.10795 79.8228 7.10795C81.8086 7.10795 83.5217 7.53409 84.962 8.38636C86.4109 9.23011 87.5273 10.4148 88.3114 11.9403C89.0955 13.4574 89.4876 15.2301 89.4876 17.2585C89.4876 19.2699 89.0955 21.0384 88.3114 22.5639C87.5273 24.081 86.4109 25.2656 84.962 26.1179C83.5217 26.9616 81.8086 27.3835 79.8228 27.3835ZM79.8484 23.1648C80.7518 23.1648 81.506 22.9091 82.1112 22.3977C82.7163 21.8778 83.1722 21.1705 83.479 20.2756C83.7944 19.3807 83.9521 18.3622 83.9521 17.2202C83.9521 16.0781 83.7944 15.0597 83.479 14.1648C83.1722 13.2699 82.7163 12.5625 82.1112 12.0426C81.506 11.5227 80.7518 11.2628 79.8484 11.2628C78.9364 11.2628 78.1694 11.5227 77.5472 12.0426C76.9336 12.5625 76.4691 13.2699 76.1538 14.1648C75.8469 15.0597 75.6935 16.0781 75.6935 17.2202C75.6935 18.3622 75.8469 19.3807 76.1538 20.2756C76.4691 21.1705 76.9336 21.8778 77.5472 22.3977C78.1694 22.9091 78.9364 23.1648 79.8484 23.1648ZM101.901 27.3835C99.9151 27.3835 98.1978 26.9616 96.7489 26.1179C95.3086 25.2656 94.1964 24.081 93.4123 22.5639C92.6282 21.0384 92.2362 19.2699 92.2362 17.2585C92.2362 15.2301 92.6282 13.4574 93.4123 11.9403C94.1964 10.4148 95.3086 9.23011 96.7489 8.38636C98.1978 7.53409 99.9151 7.10795 101.901 7.10795C103.887 7.10795 105.6 7.53409 107.04 8.38636C108.489 9.23011 109.605 10.4148 110.39 11.9403C111.174 13.4574 111.566 15.2301 111.566 17.2585C111.566 19.2699 111.174 21.0384 110.39 22.5639C109.605 24.081 108.489 25.2656 107.04 26.1179C105.6 26.9616 103.887 27.3835 101.901 27.3835ZM101.926 23.1648C102.83 23.1648 103.584 22.9091 104.189 22.3977C104.794 21.8778 105.25 21.1705 105.557 20.2756C105.873 19.3807 106.03 18.3622 106.03 17.2202C106.03 16.0781 105.873 15.0597 105.557 14.1648C105.25 13.2699 104.794 12.5625 104.189 12.0426C103.584 11.5227 102.83 11.2628 101.926 11.2628C101.015 11.2628 100.248 11.5227 99.6254 12.0426C99.0117 12.5625 98.5472 13.2699 98.2319 14.1648C97.9251 15.0597 97.7717 16.0781 97.7717 17.2202C97.7717 18.3622 97.9251 19.3807 98.2319 20.2756C98.5472 21.1705 99.0117 21.8778 99.6254 22.3977C100.248 22.9091 101.015 23.1648 101.926 23.1648ZM120.553 15.6477V27H115.107V7.36364H120.297V10.8281H120.527C120.962 9.68608 121.691 8.78267 122.713 8.1179C123.736 7.4446 124.976 7.10795 126.434 7.10795C127.797 7.10795 128.986 7.40625 130 8.00284C131.015 8.59943 131.803 9.4517 132.365 10.5597C132.928 11.6591 133.209 12.9716 133.209 14.4972V27H127.763V15.4688C127.772 14.267 127.465 13.3295 126.843 12.6562C126.221 11.9744 125.364 11.6335 124.273 11.6335C123.54 11.6335 122.892 11.7912 122.33 12.1065C121.776 12.4219 121.341 12.8821 121.026 13.4872C120.719 14.0838 120.561 14.804 120.553 15.6477Z" fill="#313131"/>
</svg>
