<svg width="126" height="28" viewBox="0 0 126 28" fill="none" xmlns="http://www.w3.org/2000/svg">
<path d="M0.783203 27V26.209L3.49023 26.0332V2.88281L0.783203 2.70703V1.91602H9.64258C12.0215 1.91602 14.0605 2.21484 15.7598 2.8125C17.459 3.41016 18.8008 4.27734 19.7852 5.41406C20.7812 6.55078 21.502 7.86914 21.9473 9.36914C22.4043 10.8691 22.6328 12.6035 22.6328 14.5723C22.6328 15.9902 22.4863 17.3145 22.1934 18.5449C21.9004 19.7637 21.4316 20.9004 20.7871 21.9551C20.1543 22.998 19.3574 23.8945 18.3965 24.6445C17.4473 25.3828 16.2754 25.9629 14.8809 26.3848C13.498 26.7949 11.9453 27 10.2227 27H0.783203ZM7.99023 25.8574C8.62305 25.9746 9.19727 26.0332 9.71289 26.0332C10.9082 26.0332 11.9688 25.8398 12.8945 25.4531C13.832 25.0664 14.6113 24.5332 15.2324 23.8535C15.8652 23.1621 16.3867 22.3242 16.7969 21.3398C17.207 20.3438 17.5 19.2656 17.6758 18.1055C17.8633 16.9453 17.957 15.6738 17.957 14.291C17.957 12.9316 17.8926 11.7188 17.7637 10.6523C17.6348 9.58594 17.3887 8.54883 17.0254 7.54102C16.6738 6.5332 16.2051 5.70117 15.6191 5.04492C15.0332 4.38867 14.2598 3.86719 13.2988 3.48047C12.3379 3.08203 11.2129 2.88281 9.92383 2.88281C9.26758 2.88281 8.62305 2.94141 7.99023 3.05859V25.8574ZM25.4277 10.7578V10.0371L29.1016 9.65039L31.5801 9L31.8965 9.50977V26.1035L33.707 26.2793V27H25.7793V26.2793L27.5898 26.1035V10.7578H25.4277ZM27.3438 2.75977C27.3438 2.43164 27.4023 2.12695 27.5195 1.8457C27.6484 1.56445 27.8184 1.31836 28.0293 1.10742C28.2402 0.896484 28.4863 0.732422 28.7676 0.615234C29.0488 0.498047 29.3477 0.439453 29.6641 0.439453C29.9805 0.439453 30.2793 0.503906 30.5605 0.632812C30.8418 0.75 31.0879 0.914062 31.2988 1.125C31.5215 1.33594 31.6914 1.58203 31.8086 1.86328C31.9375 2.14453 32.002 2.44336 32.002 2.75977C32.002 3.07617 31.9375 3.375 31.8086 3.65625C31.6914 3.9375 31.5273 4.18945 31.3164 4.41211C31.1055 4.62305 30.8594 4.79297 30.5781 4.92188C30.2969 5.03906 29.9922 5.09766 29.6641 5.09766C29.3359 5.09766 29.0312 5.03906 28.75 4.92188C28.4688 4.79297 28.2227 4.62305 28.0117 4.41211C27.8008 4.20117 27.6367 3.95508 27.5195 3.67383C27.4023 3.39258 27.3438 3.08789 27.3438 2.75977ZM42.0918 26.666C43.4277 26.666 44.4121 26.4199 45.0449 25.9277C45.6895 25.4355 46.0117 24.8203 46.0117 24.082C46.0117 23.6953 45.9473 23.3555 45.8184 23.0625C45.7012 22.7578 45.502 22.4707 45.2207 22.2012C44.9512 21.9199 44.5879 21.6387 44.1309 21.3574C43.6855 21.0645 43.1289 20.7363 42.4609 20.373C41.875 20.0332 41.2539 19.6816 40.5977 19.3184C39.9414 18.9434 39.332 18.5156 38.7695 18.0352C38.2188 17.543 37.7559 16.9746 37.3809 16.3301C37.0176 15.6855 36.8359 14.9121 36.8359 14.0098C36.8359 13.2129 36.9883 12.4922 37.293 11.8477C37.5977 11.2031 38.0195 10.6582 38.5586 10.2129C39.1094 9.75586 39.7598 9.4043 40.5098 9.1582C41.2715 8.91211 42.1035 8.78906 43.0059 8.78906C43.6855 8.78906 44.3652 8.87695 45.0449 9.05273C45.7363 9.2168 46.3574 9.46875 46.9082 9.80859C47.459 10.1484 47.9043 10.5703 48.2441 11.0742C48.584 11.5781 48.7539 12.1641 48.7539 12.832C48.7539 13.0898 48.707 13.3418 48.6133 13.5879C48.5312 13.834 48.4023 14.0566 48.2266 14.2559C48.0508 14.4551 47.834 14.6191 47.5762 14.748C47.3301 14.8652 47.043 14.9238 46.7148 14.9238C46.0352 14.9238 45.5254 14.7363 45.1855 14.3613C44.8457 13.9863 44.6758 13.5293 44.6758 12.9902C44.6758 12.6504 44.7227 12.3633 44.8164 12.1289C44.9102 11.8828 45.0332 11.6836 45.1855 11.5312C45.3496 11.3672 45.5312 11.25 45.7305 11.1797C45.9414 11.0977 46.1523 11.0566 46.3633 11.0566H46.5215V11.0215C46.4043 10.834 46.2344 10.6582 46.0117 10.4941C45.7891 10.3184 45.5254 10.166 45.2207 10.0371C44.916 9.89648 44.5762 9.78516 44.2012 9.70312C43.8262 9.62109 43.4277 9.58008 43.0059 9.58008C42.3848 9.58008 41.8574 9.66211 41.4238 9.82617C40.9902 9.99023 40.6328 10.2012 40.3516 10.459C40.082 10.7051 39.8828 10.9805 39.7539 11.2852C39.625 11.5898 39.5605 11.8828 39.5605 12.1641C39.5605 12.5039 39.6133 12.7969 39.7188 13.043C39.8242 13.2891 40.0059 13.541 40.2637 13.7988C40.5332 14.0449 40.8965 14.3145 41.3535 14.6074C41.8223 14.9004 42.4082 15.252 43.1113 15.6621C43.791 16.0137 44.5059 16.3887 45.2559 16.7871C46.0176 17.1855 46.7148 17.6484 47.3477 18.1758C47.9805 18.6914 48.502 19.2891 48.9121 19.9688C49.334 20.6367 49.5449 21.4219 49.5449 22.3242C49.5449 23.0859 49.3984 23.7832 49.1055 24.416C48.8242 25.0488 48.3789 25.5938 47.7695 26.0508C47.1719 26.5078 46.4043 26.8594 45.4668 27.1055C44.541 27.3633 43.4395 27.4922 42.1621 27.4922C41.5527 27.4922 40.9023 27.416 40.2109 27.2637C39.5195 27.1113 38.8809 26.8711 38.2949 26.543C37.709 26.2031 37.2227 25.7695 36.8359 25.2422C36.4492 24.7031 36.2559 24.0469 36.2559 23.2734C36.2559 22.9453 36.3086 22.6289 36.4141 22.3242C36.5195 22.0195 36.666 21.75 36.8535 21.5156C37.0527 21.2695 37.293 21.0762 37.5742 20.9355C37.8555 20.7949 38.1777 20.7246 38.541 20.7246C38.8574 20.7246 39.1387 20.7832 39.3848 20.9004C39.6309 21.0059 39.8359 21.1523 40 21.3398C40.1758 21.5156 40.3105 21.7266 40.4043 21.9727C40.498 22.2188 40.5508 22.4824 40.5625 22.7637C40.5625 23.0918 40.5039 23.3848 40.3867 23.6426C40.2695 23.8887 40.1172 24.0938 39.9297 24.2578C39.7422 24.4219 39.5254 24.5508 39.2793 24.6445C39.0449 24.7266 38.8105 24.7676 38.5762 24.7676C38.5293 24.7676 38.4766 24.7676 38.418 24.7676C38.3711 24.7676 38.3242 24.7617 38.2773 24.75V24.7852C38.3828 25.0195 38.541 25.248 38.752 25.4707C38.9629 25.6934 39.2266 25.8926 39.543 26.0684C39.8711 26.2441 40.2461 26.3906 40.668 26.5078C41.1016 26.6133 41.5762 26.666 42.0918 26.666ZM51.4785 2.58398L55.1523 2.19727L57.6309 1.54688L57.9473 2.05664V26.1035L59.7578 26.2793V27H51.8301V26.2793L53.6406 26.1035V3.26953L51.5137 3.30469L51.4785 2.58398ZM57.9473 17.8242V17.3848L64.7852 10.2656L62.8164 10.0723V9.35156H68.0723V10.0723L66.0859 10.2656L61.041 15.627L68.1074 26.1035L69.9355 26.2793V27H61.8848V26.2793L63.3086 26.1035L57.9473 17.8242ZM66.8066 2.70703V1.91602H76.5625V2.70703L74.1719 2.88281L81.168 20.707H81.2383L87.3555 2.88281L84.9824 2.70703V1.91602H90.5898V2.70703L88.4629 2.88281L80.1133 27.3516H79.3223L69.4609 2.88281L66.8066 2.70703ZM89.2539 23.1855C89.2539 22.6113 89.3418 22.0605 89.5176 21.5332C89.7051 20.9941 90.0039 20.4785 90.4141 19.9863C90.8242 19.4941 91.3281 19.0664 91.9258 18.7031C92.5234 18.3398 93.2617 18.0527 94.1406 17.8418C95.0312 17.6191 96.0156 17.5078 97.0938 17.5078C97.668 17.5078 98.2129 17.5312 98.7285 17.5781V15.1523C98.7285 14.3789 98.7109 13.752 98.6758 13.2715C98.6523 12.791 98.582 12.2988 98.4648 11.7949C98.3477 11.2793 98.1777 10.8867 97.9551 10.6172C97.7441 10.3359 97.4395 10.1074 97.041 9.93164C96.6543 9.74414 96.1797 9.65039 95.6172 9.65039C93.9062 9.65039 92.6582 10.3242 91.873 11.6719V11.7422C92.0723 11.707 92.2539 11.6895 92.418 11.6895C93.0273 11.6895 93.5078 11.877 93.8594 12.252C94.2109 12.627 94.3867 13.166 94.3867 13.8691C94.3867 14.4785 94.1758 14.9941 93.7539 15.416C93.332 15.8262 92.8047 16.0312 92.1719 16.0312C91.4805 16.0312 90.9355 15.7969 90.5371 15.3281C90.1387 14.8594 89.9395 14.3086 89.9395 13.6758C89.9395 12.293 90.5723 11.1387 91.8379 10.2129C93.1152 9.28711 94.5801 8.82422 96.2324 8.82422C97.4043 8.82422 98.4004 8.94727 99.2207 9.19336C100.053 9.43945 100.715 9.76758 101.207 10.1777C101.699 10.5762 102.08 11.127 102.35 11.8301C102.631 12.5215 102.812 13.2305 102.895 13.957C102.988 14.6836 103.035 15.5742 103.035 16.6289V26.1035L104.846 26.2793V27H99.2559L98.7637 24.2227H98.7285C98.1543 25.3359 97.457 26.168 96.6367 26.7188C95.8281 27.2578 94.8438 27.5273 93.6836 27.5273C92.2539 27.5273 91.1582 27.0996 90.3965 26.2441C89.6348 25.3887 89.2539 24.3691 89.2539 23.1855ZM93.5078 22.8164C93.5078 23.7539 93.6836 24.5156 94.0352 25.1016C94.3867 25.6758 94.9023 25.9629 95.582 25.9629C96.3789 25.9629 97.0996 25.4648 97.7441 24.4688C98.4004 23.4727 98.7285 22.2539 98.7285 20.8125V18.3867C98.2598 18.3281 97.8789 18.2988 97.5859 18.2988C96.9766 18.2988 96.4316 18.3809 95.9512 18.5449C95.4824 18.709 95.1074 18.9316 94.8262 19.2129C94.5449 19.4941 94.3105 19.793 94.123 20.1094C93.9355 20.4141 93.8008 20.7539 93.7188 21.1289C93.6367 21.5039 93.5781 21.8145 93.543 22.0605C93.5195 22.3066 93.5078 22.5586 93.5078 22.8164ZM106.656 10.0371L110.33 9.65039L112.809 9L113.125 9.50977L113.055 11.8828H113.125C114.52 9.84375 116.324 8.82422 118.539 8.82422C118.961 8.82422 119.365 8.85938 119.752 8.92969C120.139 9 120.566 9.1582 121.035 9.4043C121.504 9.65039 121.908 9.97266 122.248 10.3711C122.588 10.7695 122.875 11.3379 123.109 12.0762C123.344 12.8145 123.461 13.6758 123.461 14.6602V26.1035L125.254 26.2793V27H117.344V26.2793L119.137 26.1035V14.1504C119.137 11.6543 118.334 10.4062 116.729 10.4062C115.674 10.4062 114.807 10.8867 114.127 11.8477C113.459 12.8086 113.125 14.0684 113.125 15.627V26.1035L114.936 26.2793V27H107.008V26.2793L108.818 26.1035V10.7227L106.691 10.7578L106.656 10.0371Z" fill="#313131"/>
</svg>
