<svg width="103" height="36" viewBox="0 0 103 36" fill="none" xmlns="http://www.w3.org/2000/svg">
<path d="M20.18 0.979998V26H16.076V15.056H4.304V26H0.2V0.979998H4.304V11.708H16.076V0.979998H20.18ZM24.2148 15.992C24.2148 14 24.6228 12.236 25.4388 10.7C26.2788 9.164 27.4068 7.976 28.8228 7.136C30.2628 6.272 31.8468 5.84 33.5748 5.84C35.1348 5.84 36.4908 6.152 37.6428 6.776C38.8188 7.376 39.7548 8.132 40.4508 9.044V6.164H44.5908V26H40.4508V23.048C39.7548 23.984 38.8068 24.764 37.6068 25.388C36.4068 26.012 35.0388 26.324 33.5028 26.324C31.7988 26.324 30.2388 25.892 28.8228 25.028C27.4068 24.14 26.2788 22.916 25.4388 21.356C24.6228 19.772 24.2148 17.984 24.2148 15.992ZM40.4508 16.064C40.4508 14.696 40.1628 13.508 39.5868 12.5C39.0348 11.492 38.3028 10.724 37.3908 10.196C36.4788 9.668 35.4948 9.404 34.4388 9.404C33.3828 9.404 32.3988 9.668 31.4868 10.196C30.5748 10.7 29.8308 11.456 29.2548 12.464C28.7028 13.448 28.4268 14.624 28.4268 15.992C28.4268 17.36 28.7028 18.56 29.2548 19.592C29.8308 20.624 30.5748 21.416 31.4868 21.968C32.4228 22.496 33.4068 22.76 34.4388 22.76C35.4948 22.76 36.4788 22.496 37.3908 21.968C38.3028 21.44 39.0348 20.672 39.5868 19.664C40.1628 18.632 40.4508 17.432 40.4508 16.064ZM54.0853 9.044C54.6853 8.036 55.4773 7.256 56.4613 6.704C57.4693 6.128 58.6573 5.84 60.0253 5.84V10.088H58.9813C57.3733 10.088 56.1493 10.496 55.3093 11.312C54.4933 12.128 54.0853 13.544 54.0853 15.56V26H49.9813V6.164H54.0853V9.044ZM67.9017 9.08C68.5977 8.168 69.5457 7.4 70.7457 6.776C71.9457 6.152 73.3017 5.84 74.8137 5.84C76.5417 5.84 78.1137 6.272 79.5297 7.136C80.9697 7.976 82.0977 9.164 82.9137 10.7C83.7297 12.236 84.1377 14 84.1377 15.992C84.1377 17.984 83.7297 19.772 82.9137 21.356C82.0977 22.916 80.9697 24.14 79.5297 25.028C78.1137 25.892 76.5417 26.324 74.8137 26.324C73.3017 26.324 71.9577 26.024 70.7817 25.424C69.6057 24.8 68.6457 24.032 67.9017 23.12V35.432H63.7977V6.164H67.9017V9.08ZM79.9617 15.992C79.9617 14.624 79.6737 13.448 79.0977 12.464C78.5457 11.456 77.8017 10.7 76.8657 10.196C75.9537 9.668 74.9697 9.404 73.9137 9.404C72.8817 9.404 71.8977 9.668 70.9617 10.196C70.0497 10.724 69.3057 11.492 68.7297 12.5C68.1777 13.508 67.9017 14.696 67.9017 16.064C67.9017 17.432 68.1777 18.632 68.7297 19.664C69.3057 20.672 70.0497 21.44 70.9617 21.968C71.8977 22.496 72.8817 22.76 73.9137 22.76C74.9697 22.76 75.9537 22.496 76.8657 21.968C77.8017 21.416 78.5457 20.624 79.0977 19.592C79.6737 18.56 79.9617 17.36 79.9617 15.992ZM95.3961 26.324C93.8361 26.324 92.4321 26.048 91.1841 25.496C89.9601 24.92 88.9881 24.152 88.2681 23.192C87.5481 22.208 87.1641 21.116 87.1161 19.916H91.3641C91.4361 20.756 91.8321 21.464 92.5521 22.04C93.2961 22.592 94.2201 22.868 95.3241 22.868C96.4761 22.868 97.3641 22.652 97.9881 22.22C98.6361 21.764 98.9601 21.188 98.9601 20.492C98.9601 19.748 98.6001 19.196 97.8801 18.836C97.1841 18.476 96.0681 18.08 94.5321 17.648C93.0441 17.24 91.8321 16.844 90.8961 16.46C89.9601 16.076 89.1441 15.488 88.4481 14.696C87.7761 13.904 87.4401 12.86 87.4401 11.564C87.4401 10.508 87.7521 9.548 88.3761 8.684C89.0001 7.796 89.8881 7.1 91.0401 6.596C92.2161 6.092 93.5601 5.84 95.0721 5.84C97.3281 5.84 99.1401 6.416 100.508 7.568C101.9 8.696 102.644 10.244 102.74 12.212H98.6361C98.5641 11.324 98.2041 10.616 97.5561 10.088C96.9081 9.56 96.0321 9.296 94.9281 9.296C93.8481 9.296 93.0201 9.5 92.4441 9.908C91.8681 10.316 91.5801 10.856 91.5801 11.528C91.5801 12.056 91.7721 12.5 92.1561 12.86C92.5401 13.22 93.0081 13.508 93.5601 13.724C94.1121 13.916 94.9281 14.168 96.0081 14.48C97.4481 14.864 98.6241 15.26 99.5361 15.668C100.472 16.052 101.276 16.628 101.948 17.396C102.62 18.164 102.968 19.184 102.992 20.456C102.992 21.584 102.68 22.592 102.056 23.48C101.432 24.368 100.544 25.064 99.3921 25.568C98.2641 26.072 96.9321 26.324 95.3961 26.324Z" fill="#313131"/>
</svg>
