<svg width="79" height="28" viewBox="0 0 79 28" fill="none" xmlns="http://www.w3.org/2000/svg">
<path d="M0.488 27V1.8H6.32V27H0.488ZM16.5485 23.04L16.6925 16.2L25.7285 7.632H32.4245L23.7485 16.452L20.8325 18.828L16.5485 23.04ZM11.9045 27V0.287998H17.5205V27H11.9045ZM26.3405 27L19.7885 18.864L23.3165 14.508L33.1445 27H26.3405ZM44.0775 27.288C42.0135 27.288 40.1775 26.856 38.5695 25.992C36.9855 25.128 35.7255 23.952 34.7895 22.464C33.8775 20.952 33.4215 19.236 33.4215 17.316C33.4215 15.372 33.8775 13.656 34.7895 12.168C35.7255 10.656 36.9855 9.48 38.5695 8.64C40.1775 7.776 42.0135 7.344 44.0775 7.344C46.1175 7.344 47.9415 7.776 49.5495 8.64C51.1575 9.48 52.4175 10.644 53.3295 12.132C54.2415 13.62 54.6975 15.348 54.6975 17.316C54.6975 19.236 54.2415 20.952 53.3295 22.464C52.4175 23.952 51.1575 25.128 49.5495 25.992C47.9415 26.856 46.1175 27.288 44.0775 27.288ZM44.0775 22.68C45.0135 22.68 45.8535 22.464 46.5975 22.032C47.3415 21.6 47.9295 20.988 48.3615 20.196C48.7935 19.38 49.0095 18.42 49.0095 17.316C49.0095 16.188 48.7935 15.228 48.3615 14.436C47.9295 13.644 47.3415 13.032 46.5975 12.6C45.8535 12.168 45.0135 11.952 44.0775 11.952C43.1415 11.952 42.3015 12.168 41.5575 12.6C40.8135 13.032 40.2135 13.644 39.7575 14.436C39.3255 15.228 39.1095 16.188 39.1095 17.316C39.1095 18.42 39.3255 19.38 39.7575 20.196C40.2135 20.988 40.8135 21.6 41.5575 22.032C42.3015 22.464 43.1415 22.68 44.0775 22.68ZM70.2234 7.344C71.7594 7.344 73.1274 7.656 74.3274 8.28C75.5514 8.88 76.5114 9.816 77.2074 11.088C77.9034 12.336 78.2514 13.944 78.2514 15.912V27H72.6354V16.776C72.6354 15.216 72.2874 14.064 71.5914 13.32C70.9194 12.576 69.9594 12.204 68.7114 12.204C67.8234 12.204 67.0194 12.396 66.2994 12.78C65.6034 13.14 65.0514 13.704 64.6434 14.472C64.2594 15.24 64.0674 16.224 64.0674 17.424V27H58.4514V7.632H63.8154V12.996L62.8074 11.376C63.5034 10.08 64.4994 9.084 65.7954 8.388C67.0914 7.692 68.5674 7.344 70.2234 7.344Z" fill="#313131"/>
</svg>
