<svg width="22" height="22" viewBox="0 0 22 22" fill="none" xmlns="http://www.w3.org/2000/svg">
<path d="M20.0905 0.345947H1.68182C0.800295 0.345947 0.0858154 1.03859 0.0858154 1.89347V20.3977C0.0858154 21.2526 0.800535 21.9459 1.68182 21.9459H20.0905C20.9721 21.9459 21.6856 21.2523 21.6856 20.3977V1.89347C21.6856 1.03883 20.9721 0.345947 20.0905 0.345947ZM6.63422 18.4266H3.3707V8.67443H6.63422V18.4266ZM5.0027 7.34219H4.98086C3.88646 7.34219 3.17702 6.59363 3.17702 5.65667C3.17702 4.70075 3.90734 3.97259 5.02334 3.97259C6.13958 3.97259 6.82622 4.70051 6.84782 5.65667C6.84782 6.59387 6.13982 7.34219 5.0027 7.34219ZM18.3985 18.4266H15.136V13.209C15.136 11.8976 14.6632 11.0031 13.4833 11.0031C12.5807 11.0031 12.045 11.6067 11.8098 12.1892C11.7225 12.3975 11.7011 12.6884 11.7011 12.9793V18.4263H8.43902C8.43902 18.4263 8.48174 9.58883 8.43902 8.67419H11.7013V10.0568C12.1345 9.39251 12.9083 8.44475 14.6411 8.44475C16.7884 8.44475 18.3985 9.83771 18.3985 12.8346V18.4266ZM11.6802 10.0878C11.686 10.0787 11.6937 10.0676 11.7013 10.0571V10.0878H11.6802Z" fill="#313131"/>
</svg>
