<svg width="10" height="7" viewBox="0 0 10 7" fill="none" xmlns="http://www.w3.org/2000/svg">
<path d="M4.99994 6.49994C4.86833 6.5007 4.73787 6.47548 4.61603 6.42571C4.4942 6.37595 4.38338 6.30262 4.28994 6.20994L0.289941 2.20994C0.101638 2.02164 -0.00415039 1.76624 -0.00415039 1.49994C-0.00415039 1.23364 0.101638 0.978245 0.289941 0.789941C0.478245 0.601637 0.73364 0.49585 0.999941 0.49585C1.26624 0.49585 1.52164 0.601637 1.70994 0.789941L4.99994 4.08994L8.28994 0.799941C8.48124 0.636115 8.72732 0.550508 8.97899 0.560229C9.23067 0.56995 9.46941 0.674283 9.6475 0.852378C9.8256 1.03047 9.92993 1.26921 9.93965 1.52089C9.94937 1.77256 9.86377 2.01864 9.69994 2.20994L5.69994 6.20994C5.51368 6.39468 5.26228 6.49884 4.99994 6.49994Z" fill="#313131"/>
</svg>
