<svg width="19" height="19" viewBox="0 0 19 19" fill="none" xmlns="http://www.w3.org/2000/svg">
<path d="M4.15254 15.7712V3.61663C4.15254 3.09167 4.73223 2.77532 5.1734 3.05747L14.6741 9.13474C15.0827 9.39637 15.0827 9.99144 14.6741 10.2531L5.1734 16.3303C4.73223 16.6125 4.15254 16.2961 4.15254 15.7712Z" fill="#313131"/>
<path d="M4.40901 15.7712C4.40901 15.5318 4.40901 15.2907 4.40901 15.0513C4.40901 14.4408 4.40901 13.8304 4.40901 13.2199C4.40901 12.3906 4.40901 11.5612 4.40901 10.7336C4.40901 9.84439 4.40901 8.9552 4.40901 8.0643C4.40901 7.27087 4.40901 6.47744 4.40901 5.6823C4.40901 5.14023 4.40901 4.59988 4.40901 4.05782C4.40901 3.93128 4.40901 3.80303 4.40901 3.67649C4.40901 3.65768 4.40901 3.63716 4.40901 3.61835C4.40901 3.6098 4.40901 3.60638 4.40901 3.59441C4.40901 3.57902 4.41072 3.56534 4.41243 3.54995C4.40901 3.60467 4.41072 3.5585 4.41414 3.54311C4.42269 3.51233 4.43124 3.48155 4.43979 3.45248C4.42269 3.50378 4.43466 3.46103 4.44321 3.44735C4.45518 3.42683 4.46544 3.40631 4.47912 3.38579C4.48596 3.37382 4.49451 3.36356 4.50135 3.3533C4.47057 3.39605 4.49109 3.36698 4.49964 3.35843C4.52358 3.33449 4.5458 3.31226 4.57145 3.29003C4.53042 3.32594 4.56119 3.29687 4.57487 3.28832C4.58855 3.27977 4.60223 3.27122 4.61762 3.26267C4.62959 3.25583 4.64156 3.2507 4.65353 3.24386C4.70312 3.21651 4.61591 3.25412 4.6655 3.23873C4.69799 3.23018 4.72877 3.21992 4.76126 3.21309C4.8194 3.1977 4.72706 3.20796 4.76297 3.21309C4.77836 3.2148 4.79717 3.21137 4.81256 3.21137C4.82624 3.21137 4.83992 3.21138 4.8536 3.21309C4.85702 3.21309 4.92029 3.22505 4.88096 3.2148C4.83992 3.20454 4.90661 3.22163 4.90832 3.22163C4.92884 3.22676 4.94936 3.2336 4.96817 3.24044C5.01263 3.25412 4.97672 3.24386 4.96646 3.23873C4.98698 3.24899 5.00579 3.25925 5.0246 3.26951C5.03144 3.27293 5.03828 3.27806 5.04341 3.28148C5.04512 3.28319 5.04683 3.28319 5.04854 3.2849C5.07248 3.30029 5.09813 3.31568 5.12207 3.33107C5.25032 3.41315 5.37686 3.49352 5.5051 3.5756C6.00271 3.89366 6.50202 4.21342 6.99963 4.53148C7.70072 4.98121 8.40352 5.42922 9.10461 5.87894C9.84846 6.35432 10.5923 6.8314 11.3378 7.30678C11.9791 7.71717 12.6186 8.12586 13.2599 8.53625C13.6412 8.78078 14.0225 9.02531 14.4056 9.26813C14.4432 9.29207 14.4791 9.31601 14.5167 9.33824C14.5253 9.34337 14.5338 9.3485 14.5424 9.35363C14.5441 9.35363 14.5458 9.35534 14.5458 9.35534C14.5577 9.36389 14.5714 9.37244 14.5834 9.38099C14.5441 9.35021 14.5817 9.38099 14.5902 9.38954C14.6073 9.40835 14.6244 9.42544 14.6415 9.44254C14.6518 9.4528 14.6621 9.48016 14.6398 9.44084C14.6467 9.45281 14.6552 9.46306 14.6621 9.47503C14.6723 9.49213 14.6809 9.51094 14.6911 9.52975C14.698 9.54343 14.7031 9.5725 14.6894 9.52462C14.6997 9.55711 14.7099 9.58789 14.7185 9.62209C14.7219 9.63577 14.7236 9.64774 14.7253 9.66142C14.7151 9.59644 14.7236 9.658 14.7236 9.67339C14.7236 9.6922 14.7151 9.79309 14.7253 9.72469C14.7202 9.75718 14.7134 9.79138 14.7031 9.82216C14.6997 9.83584 14.6945 9.84781 14.6894 9.85978C14.7065 9.80677 14.6945 9.84952 14.686 9.8632C14.6774 9.87859 14.6706 9.89398 14.6603 9.90766C14.6552 9.9145 14.6159 9.96922 14.6518 9.92305C14.6296 9.95041 14.6039 9.97435 14.5783 10C14.5714 10.0068 14.5406 10.0308 14.5783 10.0017C14.5646 10.012 14.556 10.0171 14.5406 10.0274C14.5389 10.0274 14.5389 10.0291 14.5372 10.0291C14.5304 10.0342 14.5218 10.0393 14.515 10.0427C14.2243 10.2291 13.9336 10.4138 13.6429 10.6002C13.0564 10.9747 12.4699 11.3509 11.8833 11.7254C11.1463 12.1956 10.411 12.6676 9.67404 13.1378C8.95072 13.6012 8.22568 14.0646 7.50236 14.528C6.93636 14.8905 6.37035 15.2531 5.80435 15.6139C5.55127 15.7763 5.29991 15.9405 5.04512 16.0995C5.01776 16.1166 4.9904 16.132 4.96133 16.1474C5.00408 16.1251 4.9733 16.1422 4.96304 16.1457C4.94594 16.1508 4.92884 16.1559 4.91174 16.1611C4.89464 16.1662 4.87754 16.1679 4.86044 16.173C4.90661 16.1593 4.88609 16.1713 4.86728 16.1713C4.83308 16.173 4.80059 16.173 4.76639 16.1713C4.71851 16.1696 4.76468 16.1713 4.77494 16.173C4.75613 16.1696 4.73561 16.1662 4.7168 16.1611C4.6997 16.1576 4.62617 16.1303 4.65353 16.1422C4.68089 16.1542 4.60907 16.1183 4.59539 16.1098C4.58171 16.1012 4.56803 16.0892 4.55435 16.0824C4.52187 16.067 4.59368 16.1217 4.55093 16.079C4.527 16.055 4.50306 16.0328 4.48083 16.0072C4.51674 16.0465 4.47399 15.9952 4.46202 15.9781C4.45176 15.961 4.44321 15.9422 4.43295 15.9251C4.42611 15.9114 4.42269 15.884 4.43466 15.9302C4.42611 15.896 4.41414 15.8635 4.40559 15.8293C4.40217 15.8156 4.40388 15.7832 4.40559 15.8327C4.41072 15.8156 4.40901 15.7934 4.40901 15.7712C4.4073 15.6378 4.29273 15.5078 4.15251 15.5147C4.01571 15.5215 3.8943 15.6275 3.89601 15.7712C3.90114 16.1098 4.08582 16.4364 4.39533 16.5886C4.68773 16.7322 5.02631 16.7236 5.30504 16.5509C5.36831 16.5116 5.43157 16.4706 5.49313 16.4295C5.90866 16.1645 6.32419 15.8977 6.73971 15.6327C7.40831 15.2052 8.07692 14.7777 8.74552 14.3502C9.50304 13.8646 10.2623 13.3806 11.0198 12.895C11.7106 12.4538 12.4015 12.0109 13.0923 11.5698C13.5574 11.2722 14.0242 10.9747 14.4893 10.6754C14.5868 10.6139 14.6843 10.5506 14.7818 10.4891C14.8741 10.4292 14.9613 10.3608 15.0297 10.2736C15.2537 9.99145 15.2947 9.61696 15.1426 9.29036C15.0485 9.09029 14.8809 8.96375 14.7031 8.84918C14.5663 8.76197 14.4278 8.67305 14.291 8.58584C13.7694 8.2524 13.2479 7.91895 12.7281 7.58551C12.0099 7.12552 11.29 6.66554 10.5718 6.20555C9.81597 5.72334 9.06186 5.23941 8.30605 4.7572C7.67507 4.35364 7.04409 3.95009 6.4131 3.54653C6.06769 3.32594 5.72398 3.10536 5.37857 2.88477C5.1443 2.73429 4.88438 2.65734 4.60394 2.72061C4.17132 2.81808 3.89601 3.2165 3.8943 3.64742C3.8943 3.98087 3.8943 4.3126 3.8943 4.64605C3.8943 5.33004 3.8943 6.01403 3.8943 6.69803C3.8943 7.5667 3.8943 8.43366 3.8943 9.30233C3.8943 10.1932 3.8943 11.0858 3.8943 11.9767C3.8943 12.7308 3.8943 13.4849 3.8943 14.2408C3.8943 14.6922 3.8943 15.1419 3.8943 15.5933C3.8943 15.6532 3.8943 15.713 3.8943 15.7746C3.8943 15.908 4.01229 16.0379 4.1508 16.0311C4.29102 16.0208 4.40901 15.9148 4.40901 15.7712Z" fill="#313131"/>
</svg>
