<svg width="209" height="31" viewBox="0 0 209 31" fill="none" xmlns="http://www.w3.org/2000/svg">
<path d="M20.204 30.428L16.388 25.856C15.332 26.12 14.252 26.252 13.148 26.252C10.796 26.252 8.636 25.7 6.668 24.596C4.7 23.492 3.14 21.968 1.988 20.024C0.836 18.056 0.26 15.836 0.26 13.364C0.26 10.916 0.836 8.72 1.988 6.776C3.14 4.808 4.7 3.272 6.668 2.168C8.636 1.064 10.796 0.512 13.148 0.512C15.524 0.512 17.684 1.064 19.628 2.168C21.596 3.272 23.144 4.808 24.272 6.776C25.424 8.72 26 10.916 26 13.364C26 15.596 25.52 17.636 24.56 19.484C23.624 21.308 22.34 22.796 20.708 23.948L26.468 30.428H20.204ZM5.444 13.364C5.444 15.044 5.768 16.52 6.416 17.792C7.064 19.064 7.964 20.048 9.116 20.744C10.292 21.416 11.636 21.752 13.148 21.752C14.66 21.752 15.992 21.416 17.144 20.744C18.296 20.048 19.196 19.064 19.844 17.792C20.492 16.52 20.816 15.044 20.816 13.364C20.816 11.684 20.492 10.22 19.844 8.972C19.196 7.7 18.296 6.728 17.144 6.056C15.992 5.384 14.66 5.048 13.148 5.048C11.636 5.048 10.292 5.384 9.116 6.056C7.964 6.728 7.064 7.7 6.416 8.972C5.768 10.22 5.444 11.684 5.444 13.364ZM48.6479 6.056V26H43.5719V23.48C42.9239 24.344 42.0719 25.028 41.0159 25.532C39.9839 26.012 38.8559 26.252 37.6319 26.252C36.0719 26.252 34.6919 25.928 33.4919 25.28C32.2919 24.608 31.3439 23.636 30.6479 22.364C29.9759 21.068 29.6399 19.532 29.6399 17.756V6.056H34.6799V17.036C34.6799 18.62 35.0759 19.844 35.8679 20.708C36.6599 21.548 37.7399 21.968 39.1079 21.968C40.4999 21.968 41.5919 21.548 42.3839 20.708C43.1759 19.844 43.5719 18.62 43.5719 17.036V6.056H48.6479ZM52.3247 15.956C52.3247 13.94 52.7207 12.152 53.5127 10.592C54.3287 9.032 55.4207 7.832 56.7887 6.992C58.1807 6.152 59.7287 5.732 61.4327 5.732C62.9207 5.732 64.2167 6.032 65.3207 6.632C66.4487 7.232 67.3487 7.988 68.0207 8.9V6.056H73.0967V26H68.0207V23.084C67.3727 24.02 66.4727 24.8 65.3207 25.424C64.1927 26.024 62.8847 26.324 61.3967 26.324C59.7167 26.324 58.1807 25.892 56.7887 25.028C55.4207 24.164 54.3287 22.952 53.5127 21.392C52.7207 19.808 52.3247 17.996 52.3247 15.956ZM68.0207 16.028C68.0207 14.804 67.7807 13.76 67.3007 12.896C66.8207 12.008 66.1727 11.336 65.3567 10.88C64.5407 10.4 63.6647 10.16 62.7287 10.16C61.7927 10.16 60.9287 10.388 60.1367 10.844C59.3447 11.3 58.6967 11.972 58.1927 12.86C57.7127 13.724 57.4727 14.756 57.4727 15.956C57.4727 17.156 57.7127 18.212 58.1927 19.124C58.6967 20.012 59.3447 20.696 60.1367 21.176C60.9527 21.656 61.8167 21.896 62.7287 21.896C63.6647 21.896 64.5407 21.668 65.3567 21.212C66.1727 20.732 66.8207 20.06 67.3007 19.196C67.7807 18.308 68.0207 17.252 68.0207 16.028ZM89.0712 5.768C91.4472 5.768 93.3672 6.524 94.8312 8.036C96.2952 9.524 97.0272 11.612 97.0272 14.3V26H91.9872V14.984C91.9872 13.4 91.5912 12.188 90.7992 11.348C90.0072 10.484 88.9272 10.052 87.5592 10.052C86.1672 10.052 85.0632 10.484 84.2472 11.348C83.4552 12.188 83.0592 13.4 83.0592 14.984V26H78.0192V6.056H83.0592V8.54C83.7312 7.676 84.5832 7.004 85.6152 6.524C86.6712 6.02 87.8232 5.768 89.0712 5.768ZM107.688 10.196V19.844C107.688 20.516 107.844 21.008 108.156 21.32C108.492 21.608 109.044 21.752 109.812 21.752H112.152V26H108.984C104.736 26 102.612 23.936 102.612 19.808V10.196H100.236V6.056H102.612V1.124H107.688V6.056H112.152V10.196H107.688ZM134.605 6.056V26H129.529V23.48C128.881 24.344 128.029 25.028 126.973 25.532C125.941 26.012 124.813 26.252 123.589 26.252C122.029 26.252 120.649 25.928 119.449 25.28C118.249 24.608 117.301 23.636 116.605 22.364C115.933 21.068 115.597 19.532 115.597 17.756V6.056H120.637V17.036C120.637 18.62 121.033 19.844 121.825 20.708C122.617 21.548 123.697 21.968 125.065 21.968C126.457 21.968 127.549 21.548 128.341 20.708C129.133 19.844 129.529 18.62 129.529 17.036V6.056H134.605ZM164.346 5.768C166.794 5.768 168.762 6.524 170.25 8.036C171.762 9.524 172.518 11.612 172.518 14.3V26H167.478V14.984C167.478 13.424 167.082 12.236 166.29 11.42C165.498 10.58 164.418 10.16 163.05 10.16C161.682 10.16 160.59 10.58 159.774 11.42C158.982 12.236 158.586 13.424 158.586 14.984V26H153.546V14.984C153.546 13.424 153.15 12.236 152.358 11.42C151.566 10.58 150.486 10.16 149.118 10.16C147.726 10.16 146.622 10.58 145.806 11.42C145.014 12.236 144.618 13.424 144.618 14.984V26H139.578V6.056H144.618V8.468C145.266 7.628 146.094 6.968 147.102 6.488C148.134 6.008 149.262 5.768 150.486 5.768C152.046 5.768 153.438 6.104 154.662 6.776C155.886 7.424 156.834 8.36 157.506 9.584C158.154 8.432 159.09 7.508 160.314 6.812C161.562 6.116 162.906 5.768 164.346 5.768Z" fill="#1E1E1E"/>
<path d="M192.708 21.212H182.7L181.044 26H175.752L184.788 0.835998H190.656L199.692 26H194.364L192.708 21.212ZM191.34 17.18L187.704 6.668L184.068 17.18H191.34ZM208.11 0.872V26H203.07V0.872H208.11Z" fill="#F5993C"/>
</svg>
