<svg width="140" height="35" viewBox="0 0 140 35" fill="none" xmlns="http://www.w3.org/2000/svg">
<path d="M7.71094 2.10742C4.16016 2.10742 0.943359 4.09375 0.943359 8.34766C0.943359 12.4082 3.93164 14.3594 7.35938 16.416C10.6992 18.4199 12.9668 20.0723 12.9668 22.9902C12.9668 26.3828 10.6289 27.7891 8.29102 27.7891C3.68555 27.7891 2.0332 23.9746 1.73438 19.6152H0.908203C0.908203 24.6953 0.873047 26.7695 0.767578 28.2461H1.59375C1.73438 27.209 1.92773 26.6641 2.38477 26.6641C2.68359 26.6641 3.03516 26.8047 3.61523 27.1738C4.65234 27.8242 5.98828 28.5098 8.53711 28.5098C12.7207 28.5098 16.1836 26.2422 16.1836 21.6719C16.1836 17.8047 13.4414 15.9062 9.69727 13.5684C6.46289 11.5469 3.65039 10.2461 3.65039 6.97656C3.65039 4.49805 5.47852 2.79297 8.04492 2.79297C12.0352 2.79297 13.6875 6.29102 13.9512 9.71875H14.7773C14.7773 5.18359 14.8477 3.63672 14.9531 2.37109H14.127C13.9863 3.4082 13.793 3.95312 13.3359 3.95312C13.002 3.95312 12.6855 3.8125 12.1055 3.44336C11.1387 2.79297 10.084 2.10742 7.71094 2.10742ZM23.0918 0.455078C21.8262 0.455078 20.7891 1.50977 20.7891 2.75781C20.7891 4.02344 21.8262 5.06055 23.0918 5.06055C24.3398 5.06055 25.3945 4.02344 25.3945 2.75781C25.3945 1.50977 24.3398 0.455078 23.0918 0.455078ZM24.9551 9.06836C23.918 9.41992 22.6172 9.56055 21.2109 9.56055C20.4902 9.56055 19.7344 9.52539 18.9785 9.45508V10.2109C21.0703 10.2109 21.7207 11.2305 21.7207 13.3926V24.6602C21.7207 26.6641 20.9648 27.2441 18.9785 27.2441V28C19.8047 27.9648 21.6855 27.8594 23.3379 27.8594C24.9902 27.8594 26.8711 27.9648 27.6973 28V27.2441C25.7109 27.2441 24.9551 26.6641 24.9551 24.6602V9.06836ZM57.1758 15.0449C57.1758 12.7773 56.8945 11.3008 55.998 10.3164C55.1719 9.45508 53.9414 8.96289 52.2539 8.96289C49.9688 8.96289 47.543 9.94727 46.2598 13.2168C46.1191 11.9336 45.7852 11.002 45.1523 10.3164C44.3262 9.45508 43.0957 8.96289 41.4082 8.96289C39.1055 8.96289 36.7324 10.1758 35.502 13.3047V9.06836C34.4648 9.41992 33.1641 9.56055 31.7578 9.56055C31.0371 9.56055 30.2812 9.52539 29.5254 9.45508V10.2109C31.6172 10.2109 32.2676 11.2305 32.2676 13.3926V24.6602C32.2676 26.6641 31.5117 27.2441 29.5254 27.2441V28C30.3516 27.9648 32.2676 27.8594 33.8496 27.8594C35.4316 27.8594 37.1367 27.9648 37.8926 28V27.2441C36.1523 27.2441 35.502 26.6641 35.502 24.6602V16.6621C35.502 12.9883 37.5586 10.1055 40.3711 10.1055C42.9551 10.1055 43.0957 12.0215 43.0957 14.2539V24.6602C43.0957 26.6641 42.4629 27.2441 40.7227 27.2441V28C41.4785 27.9648 43.1836 27.8594 44.7656 27.8594C46.3477 27.8594 48.2461 27.9648 49.0723 28V27.2441C47.1035 27.2441 46.3477 26.6641 46.3477 24.6602V16.627C46.3477 12.9531 48.4043 10.1055 51.1992 10.1055C53.8008 10.1055 53.9414 12.0215 53.9414 14.2539V24.6602C53.9414 26.6641 53.291 27.2441 51.5684 27.2441V28C52.3242 27.9648 54.0117 27.8594 55.5938 27.8594C57.1758 27.8594 59.0918 27.9648 59.918 28V27.2441C57.9316 27.2441 57.1758 26.6641 57.1758 24.6602V15.0449ZM69.6914 2.10742C66.1406 2.10742 62.9238 4.09375 62.9238 8.34766C62.9238 12.4082 65.9121 14.3594 69.3398 16.416C72.6797 18.4199 74.9473 20.0723 74.9473 22.9902C74.9473 26.3828 72.6094 27.7891 70.2715 27.7891C65.666 27.7891 64.0137 23.9746 63.7148 19.6152H62.8887C62.8887 24.6953 62.8535 26.7695 62.748 28.2461H63.5742C63.7148 27.209 63.9082 26.6641 64.3652 26.6641C64.6641 26.6641 65.0156 26.8047 65.5957 27.1738C66.6328 27.8242 67.9688 28.5098 70.5176 28.5098C74.7012 28.5098 78.1641 26.2422 78.1641 21.6719C78.1641 17.8047 75.4219 15.9062 71.6777 13.5684C68.4434 11.5469 65.6309 10.2461 65.6309 6.97656C65.6309 4.49805 67.459 2.79297 70.0254 2.79297C74.0156 2.79297 75.668 6.29102 75.9316 9.71875H76.7578C76.7578 5.18359 76.8281 3.63672 76.9336 2.37109H76.1074C75.9668 3.4082 75.7734 3.95312 75.3164 3.95312C74.9824 3.95312 74.666 3.8125 74.0859 3.44336C73.1191 2.79297 72.0645 2.10742 69.6914 2.10742ZM89.7832 8.96289C85.2129 8.96289 81.6094 11.8281 81.6094 18.7539C81.6094 25.6621 85.2129 28.5098 89.7832 28.5098C94.3535 28.5098 97.957 25.6621 97.957 18.7539C97.957 11.8281 94.3535 8.96289 89.7832 8.96289ZM89.7832 9.68359C92.5254 9.68359 94.459 12.3027 94.459 18.7539C94.459 25.1875 92.5254 27.7891 89.7832 27.7891C87.0586 27.7891 85.1074 25.1875 85.1074 18.7539C85.1074 12.3027 87.0586 9.68359 89.7832 9.68359ZM112.793 8.96289C110.332 8.96289 107.924 10.0703 106.658 13.3047V9.06836C105.621 9.41992 104.32 9.56055 102.914 9.56055C102.193 9.56055 101.438 9.52539 100.682 9.45508V10.2109C102.773 10.2109 103.424 11.2305 103.424 13.3926V24.6602C103.424 26.6641 102.668 27.2441 100.682 27.2441V28C101.508 27.9648 103.424 27.8594 105.006 27.8594C106.588 27.8594 108.293 27.9648 109.049 28V27.2441C107.309 27.2441 106.658 26.6641 106.658 24.6602V16.6621C106.658 12.9883 108.68 10.1055 111.703 10.1055C114.305 10.1055 114.621 12.0215 114.621 14.2539V24.6602C114.621 26.6641 113.971 27.2441 112.248 27.2441V28C113.004 27.9648 114.691 27.8594 116.273 27.8594C117.855 27.8594 119.771 27.9648 120.598 28V27.2441C118.611 27.2441 117.855 26.6641 117.855 24.6602V15.0449C117.855 12.584 117.504 11.3008 116.607 10.3164C115.781 9.45508 114.621 8.96289 112.793 8.96289ZM126.486 24.0449C125.256 24.0449 124.764 23.6406 124.764 22.8496C124.764 21.7422 126.17 20.8633 127.787 20.002C128.578 20.2305 129.475 20.3359 130.441 20.3359C134.221 20.3359 137.104 18.5957 137.104 14.6406C137.104 11.916 135.732 10.2461 133.641 9.47266C133.729 8.875 133.887 8.38281 134.01 7.97852C134.309 7.11719 134.625 6.53711 134.977 6.2207C135.205 7.62695 135.592 8.48828 136.893 8.48828C137.895 8.48828 138.615 7.73242 138.615 6.76562C138.615 5.71094 137.965 4.88477 136.717 4.88477C135.662 4.88477 134.836 5.35938 134.256 6.08008C133.711 6.80078 133.236 7.92578 132.99 9.2793C132.217 9.06836 131.355 8.96289 130.441 8.96289C126.662 8.96289 123.797 10.6855 123.797 14.6406C123.797 17.3301 125.115 18.9824 127.137 19.7734C123.709 21.3203 122.637 22.7793 122.637 24.3262C122.637 26.7344 124.975 27.0684 126.24 27.0684H126.363C124.078 28.1055 121.846 29.7051 121.846 31.4629C121.846 33.6602 125.449 34.7676 129.088 34.7676C136.066 34.7676 139.16 30.584 139.16 27.3848C139.16 24.8711 137.209 24.0449 134.941 24.0449H126.486ZM130.441 9.5957C132.463 9.5957 133.729 10.791 133.729 14.6406C133.729 18.4902 132.463 19.6855 130.441 19.6855C128.438 19.6855 127.172 18.4902 127.172 14.6406C127.172 10.791 128.438 9.5957 130.441 9.5957ZM130.055 34.1523C127.646 34.1523 124.799 33.1504 124.799 30.707C124.799 29.3711 125.66 27.877 127.242 27.0684H133.939C136.137 27.0684 136.682 27.7539 136.682 29.0723C136.682 32.5352 133.078 34.1523 130.055 34.1523Z" fill="#313131"/>
</svg>
