<svg width="107" height="27" viewBox="0 0 107 27" fill="none" xmlns="http://www.w3.org/2000/svg">
<path d="M11.02 26.824C9.172 26.824 7.42 26.584 5.764 26.104C4.132 25.6 2.8 24.928 1.768 24.088C1.216 23.68 0.94 23.104 0.94 22.36C0.94 21.856 1.084 21.424 1.372 21.064C1.684 20.68 2.044 20.488 2.452 20.488C2.884 20.488 3.376 20.656 3.928 20.992C4.96 21.736 6.04 22.276 7.168 22.612C8.296 22.948 9.544 23.116 10.912 23.116C12.664 23.116 14.008 22.816 14.944 22.216C15.88 21.592 16.348 20.692 16.348 19.516C16.348 18.604 15.904 17.908 15.016 17.428C14.152 16.924 12.7 16.444 10.66 15.988C8.548 15.532 6.832 15.004 5.512 14.404C4.192 13.804 3.196 13.036 2.524 12.1C1.852 11.164 1.516 9.976 1.516 8.536C1.516 7.048 1.936 5.716 2.776 4.54C3.616 3.364 4.78 2.452 6.268 1.804C7.78 1.132 9.472 0.795998 11.344 0.795998C14.776 0.795998 17.572 1.708 19.732 3.532C20.044 3.796 20.26 4.06 20.38 4.324C20.524 4.564 20.596 4.876 20.596 5.26C20.596 5.764 20.44 6.208 20.128 6.592C19.84 6.952 19.492 7.132 19.084 7.132C18.844 7.132 18.616 7.096 18.4 7.024C18.208 6.952 17.944 6.82 17.608 6.628C16.624 5.908 15.664 5.38 14.728 5.044C13.816 4.684 12.688 4.504 11.344 4.504C9.712 4.504 8.416 4.84 7.456 5.512C6.52 6.16 6.052 7.072 6.052 8.248C6.052 9.232 6.472 9.988 7.312 10.516C8.152 11.044 9.58 11.536 11.596 11.992C13.732 12.472 15.46 13.012 16.78 13.612C18.124 14.188 19.144 14.932 19.84 15.844C20.56 16.756 20.92 17.896 20.92 19.264C20.92 20.752 20.5 22.072 19.66 23.224C18.844 24.352 17.68 25.24 16.168 25.888C14.68 26.512 12.964 26.824 11.02 26.824ZM33.6949 23.368C34.8949 23.44 35.4949 23.98 35.4949 24.988C35.4949 25.564 35.2549 26.008 34.7749 26.32C34.3189 26.608 33.6589 26.728 32.7949 26.68L31.8229 26.608C27.7909 26.32 25.7749 24.16 25.7749 20.128V12.28H23.9749C23.3269 12.28 22.8229 12.136 22.4629 11.848C22.1269 11.56 21.9589 11.14 21.9589 10.588C21.9589 10.036 22.1269 9.616 22.4629 9.328C22.8229 9.04 23.3269 8.896 23.9749 8.896H25.7749V5.584C25.7749 4.936 25.9789 4.42 26.3869 4.036C26.7949 3.652 27.3469 3.46 28.0429 3.46C28.7149 3.46 29.2549 3.652 29.6629 4.036C30.0709 4.42 30.2749 4.936 30.2749 5.584V8.896H33.3349C33.9829 8.896 34.4749 9.04 34.8109 9.328C35.1709 9.616 35.3509 10.036 35.3509 10.588C35.3509 11.14 35.1709 11.56 34.8109 11.848C34.4749 12.136 33.9829 12.28 33.3349 12.28H30.2749V20.452C30.2749 22.228 31.0909 23.176 32.7229 23.296L33.6949 23.368ZM47.668 8.536C48.292 8.488 48.784 8.62 49.144 8.932C49.504 9.244 49.684 9.712 49.684 10.336C49.684 10.984 49.528 11.464 49.216 11.776C48.904 12.088 48.34 12.292 47.524 12.388L46.444 12.496C45.028 12.64 43.984 13.12 43.312 13.936C42.664 14.752 42.34 15.772 42.34 16.996V24.556C42.34 25.252 42.124 25.792 41.692 26.176C41.26 26.536 40.72 26.716 40.072 26.716C39.424 26.716 38.884 26.536 38.452 26.176C38.044 25.792 37.84 25.252 37.84 24.556V10.624C37.84 9.952 38.044 9.436 38.452 9.076C38.884 8.716 39.412 8.536 40.036 8.536C40.66 8.536 41.164 8.716 41.548 9.076C41.932 9.412 42.124 9.904 42.124 10.552V11.992C42.58 10.936 43.252 10.12 44.14 9.544C45.052 8.968 46.06 8.644 47.164 8.572L47.668 8.536ZM59.2977 26.788C57.4977 26.788 55.9137 26.416 54.5457 25.672C53.2017 24.928 52.1577 23.86 51.4137 22.468C50.6697 21.076 50.2977 19.456 50.2977 17.608C50.2977 15.76 50.6697 14.152 51.4137 12.784C52.1577 11.392 53.2017 10.324 54.5457 9.58C55.9137 8.836 57.4977 8.464 59.2977 8.464C61.0977 8.464 62.6697 8.836 64.0137 9.58C65.3817 10.324 66.4257 11.392 67.1457 12.784C67.8897 14.152 68.2617 15.76 68.2617 17.608C68.2617 19.456 67.8897 21.076 67.1457 22.468C66.4257 23.86 65.3817 24.928 64.0137 25.672C62.6697 26.416 61.0977 26.788 59.2977 26.788ZM59.2617 23.296C60.7257 23.296 61.8417 22.816 62.6097 21.856C63.3777 20.896 63.7617 19.48 63.7617 17.608C63.7617 15.76 63.3777 14.356 62.6097 13.396C61.8417 12.412 60.7377 11.92 59.2977 11.92C57.8577 11.92 56.7417 12.412 55.9497 13.396C55.1817 14.356 54.7977 15.76 54.7977 17.608C54.7977 19.48 55.1817 20.896 55.9497 21.856C56.7177 22.816 57.8217 23.296 59.2617 23.296ZM82.2007 8.464C84.3127 8.464 85.8847 9.064 86.9167 10.264C87.9487 11.464 88.4647 13.276 88.4647 15.7V24.556C88.4647 25.228 88.2607 25.756 87.8527 26.14C87.4687 26.524 86.9287 26.716 86.2327 26.716C85.5367 26.716 84.9847 26.524 84.5767 26.14C84.1687 25.756 83.9647 25.228 83.9647 24.556V15.952C83.9647 14.584 83.7007 13.588 83.1727 12.964C82.6687 12.34 81.8647 12.028 80.7607 12.028C79.4647 12.028 78.4207 12.436 77.6287 13.252C76.8607 14.068 76.4767 15.16 76.4767 16.528V24.556C76.4767 25.228 76.2727 25.756 75.8647 26.14C75.4567 26.524 74.9047 26.716 74.2087 26.716C73.5127 26.716 72.9607 26.524 72.5527 26.14C72.1687 25.756 71.9767 25.228 71.9767 24.556V10.624C71.9767 10 72.1807 9.496 72.5887 9.112C72.9967 8.728 73.5487 8.536 74.2447 8.536C74.8687 8.536 75.3727 8.728 75.7567 9.112C76.1647 9.472 76.3687 9.952 76.3687 10.552V11.524C76.9687 10.54 77.7727 9.784 78.7807 9.256C79.7887 8.728 80.9287 8.464 82.2007 8.464ZM99.4073 26.788C96.7913 26.788 94.6793 26.272 93.0713 25.24C92.3033 24.784 91.9193 24.136 91.9193 23.296C91.9193 22.816 92.0513 22.432 92.3153 22.144C92.5793 21.832 92.9033 21.676 93.2873 21.676C93.6953 21.676 94.2593 21.868 94.9793 22.252C95.7473 22.612 96.4433 22.888 97.0673 23.08C97.7153 23.272 98.5313 23.368 99.5153 23.368C100.523 23.368 101.303 23.2 101.855 22.864C102.431 22.528 102.719 22.06 102.719 21.46C102.719 21.052 102.599 20.728 102.359 20.488C102.143 20.248 101.735 20.032 101.135 19.84C100.559 19.624 99.6713 19.384 98.4713 19.12C96.3353 18.688 94.7993 18.076 93.8633 17.284C92.9513 16.492 92.4953 15.4 92.4953 14.008C92.4953 12.952 92.8073 12.004 93.4313 11.164C94.0553 10.3 94.9073 9.64 95.9873 9.184C97.0913 8.704 98.3393 8.464 99.7313 8.464C100.739 8.464 101.711 8.596 102.647 8.86C103.583 9.1 104.423 9.46 105.167 9.94C105.935 10.42 106.319 11.056 106.319 11.848C106.319 12.328 106.187 12.736 105.923 13.072C105.659 13.384 105.335 13.54 104.951 13.54C104.687 13.54 104.423 13.492 104.159 13.396C103.919 13.276 103.607 13.108 103.223 12.892C102.527 12.532 101.927 12.268 101.423 12.1C100.919 11.908 100.295 11.812 99.5513 11.812C98.6633 11.812 97.9553 11.992 97.4273 12.352C96.9233 12.712 96.6713 13.204 96.6713 13.828C96.6713 14.428 96.9353 14.884 97.4633 15.196C97.9913 15.508 99.0113 15.82 100.523 16.132C102.131 16.468 103.391 16.852 104.303 17.284C105.215 17.716 105.863 18.256 106.247 18.904C106.655 19.552 106.859 20.38 106.859 21.388C106.859 23.02 106.175 24.328 104.807 25.312C103.463 26.296 101.663 26.788 99.4073 26.788Z" fill="#313131"/>
</svg>
